<svg xmlns="http://www.w3.org/2000/svg" width="15.5" height="15.031" viewBox="0 0 15.5 15.031">
  <defs>
    <style>
      .cls-1 {
        fill-rule: evenodd;
        opacity: 0.2;
      }
    </style>
  </defs>
  <path id="linkedin.svg" class="cls-1" d="M1489.02,62.984h2.99V53h-2.99v9.988Zm11.67-10.332a4.486,4.486,0,0,0-3.68,1.7v-1.39H1494V62.984h3.01V57.566a2.379,2.379,0,0,1,2.36-2.262c1.32,0,1.64,1.117,1.64,2.234v5.446h3V57.315C1504.01,53.377,1502.14,52.652,1500.69,52.652Zm-10.22-4.7a1.769,1.769,0,1,0,1.95,1.761A1.864,1.864,0,0,0,1490.47,47.952Z" transform="translate(-1488.5 -47.938)"/>
</svg>
