<svg xmlns="http://www.w3.org/2000/svg" width="32" height="32" viewBox="0 0 32 32">
  <defs>
    <style>
      .cls-1 {
        fill: #f4b60d;
        fill-rule: evenodd;
      }
    </style>
  </defs>
  <path id="params.svg" class="cls-1" d="M912,754.021V751a3,3,0,0,0-6,0v3.021a4.955,4.955,0,0,0,0,7.955V777a3,3,0,1,0,6,0V761.976A4.955,4.955,0,0,0,912,754.021ZM908,751a1,1,0,0,1,2,0v2.1a5.1,5.1,0,0,0-2,0V751Zm2,26a1,1,0,1,1-2,0V762.9a4.953,4.953,0,0,0,2,0V777Zm1.865-18.16c-0.016.053-.03,0.106-0.049,0.159a2.912,2.912,0,0,1-.378.736c0,0.006-.009.01-0.013,0.016a2.977,2.977,0,0,1-.617.626,0.022,0.022,0,0,1-.009.008,2.988,2.988,0,0,1-3.6,0,0.031,0.031,0,0,1-.01-0.008,3,3,0,0,1-.616-0.626c0-.006-0.01-0.01-0.014-0.016a2.979,2.979,0,0,1-.378-0.736c-0.018-.053-0.033-0.106-0.048-0.159a2.684,2.684,0,0,1,0-1.681c0.015-.053.03-0.106,0.048-0.157a3.027,3.027,0,0,1,.378-0.738c0-.006.01-0.01,0.014-0.015a3.055,3.055,0,0,1,.616-0.628,0.036,0.036,0,0,0,.01-0.007,3.077,3.077,0,0,1,.8-0.43,2.824,2.824,0,0,1,2,0,3.077,3.077,0,0,1,.8.43,0.055,0.055,0,0,0,.009.007,3.035,3.035,0,0,1,.617.628s0.009,0.009.013,0.015a2.959,2.959,0,0,1,.378.738c0.019,0.051.033,0.1,0.049,0.157A2.684,2.684,0,0,1,911.865,758.839ZM934,754.021V751a3,3,0,0,0-6,0v3.021a4.955,4.955,0,0,0,0,7.955V777a3,3,0,1,0,6,0V761.976A4.955,4.955,0,0,0,934,754.021ZM930,751a1,1,0,0,1,2,0v2.1a5.1,5.1,0,0,0-2,0V751Zm2,26a1,1,0,1,1-2,0V762.9a4.953,4.953,0,0,0,2,0V777Zm1.865-18.16c-0.016.053-.03,0.106-0.049,0.159a2.912,2.912,0,0,1-.378.736c0,0.006-.009.01-0.013,0.016a2.977,2.977,0,0,1-.617.626,0.022,0.022,0,0,1-.009.008,2.977,2.977,0,0,1-.8.43,2.988,2.988,0,0,1-2.8-.43,0.031,0.031,0,0,1-.01-0.008,3,3,0,0,1-.616-0.626c0-.006-0.01-0.01-0.014-0.016a2.979,2.979,0,0,1-.378-0.736c-0.018-.053-0.033-0.106-0.048-0.159a2.684,2.684,0,0,1,0-1.681c0.015-.053.03-0.106,0.048-0.157a3.027,3.027,0,0,1,.378-0.738c0-.006.01-0.01,0.014-0.015a3.055,3.055,0,0,1,.616-0.628,0.036,0.036,0,0,0,.01-0.007,3.077,3.077,0,0,1,.8-0.43,2.824,2.824,0,0,1,2,0,3.093,3.093,0,0,1,.8.43,0.055,0.055,0,0,0,.009.007,3.035,3.035,0,0,1,.617.628s0.009,0.009.013,0.015a2.959,2.959,0,0,1,.378.738c0.019,0.051.033,0.1,0.049,0.157A2.684,2.684,0,0,1,933.865,758.839ZM923,766.021V751a3,3,0,0,0-6,0v15.021a4.955,4.955,0,0,0,0,7.955V777a3,3,0,1,0,6,0v-3.023A4.955,4.955,0,0,0,923,766.021ZM919,751a1,1,0,0,1,2,0v14.1a5.1,5.1,0,0,0-2,0V751Zm2,26a1,1,0,1,1-2,0v-2.1a4.953,4.953,0,0,0,2,0V777Zm1.865-6.16c-0.015.053-.03,0.106-0.049,0.159a2.945,2.945,0,0,1-.378.736,0.093,0.093,0,0,1-.013.015,2.958,2.958,0,0,1-.617.627,0.022,0.022,0,0,1-.009.008A3.118,3.118,0,0,1,920,773a3.118,3.118,0,0,1-1.8-.616,0.031,0.031,0,0,1-.01-0.008,2.978,2.978,0,0,1-.616-0.627s-0.01-.009-0.014-0.015a2.979,2.979,0,0,1-.378-0.736c-0.018-.053-0.033-0.106-0.048-0.159a2.684,2.684,0,0,1,0-1.681c0.015-.053.03-0.106,0.048-0.157a3.027,3.027,0,0,1,.378-0.738c0-.006.01-0.01,0.014-0.015a3.026,3.026,0,0,1,.616-0.627,0.087,0.087,0,0,0,.01-0.008,3.077,3.077,0,0,1,.8-0.43,2.824,2.824,0,0,1,2,0,3.093,3.093,0,0,1,.8.43l0.009,0.008a3.006,3.006,0,0,1,.617.627,0.093,0.093,0,0,1,.013.015,2.992,2.992,0,0,1,.378.738c0.019,0.051.034,0.1,0.049,0.157A2.684,2.684,0,0,1,922.865,770.839Z" transform="translate(-904 -748)"/>
</svg>
