<svg xmlns="http://www.w3.org/2000/svg" width="15.06" height="15" viewBox="0 0 15.06 15">
  <defs>
    <style>
      .cls-1 {
        fill-rule: evenodd;
        opacity: 0.2;
      }
    </style>
  </defs>
  <path id="rss.svg" class="cls-1" d="M1457.99,59.968a2.016,2.016,0,1,0,2.02,2.016A2.016,2.016,0,0,0,1457.99,59.968Zm-1.85-5.913c-0.04,0-.07.007-0.11,0.007v2.792c0.04,0,.07-0.006.11-0.006a7,7,0,0,1,7.01,6.979c0,0.059-.01.116-0.01,0.175h2.8c0-.059.01-0.116,0.01-0.175A9.8,9.8,0,0,0,1456.14,54.055Zm0-5.058-0.11,0v2.792c0.04,0,.07,0,0.11,0a12.076,12.076,0,0,1,12.09,12.04c0,0.059-.01.116-0.01,0.175h2.8c0-.059.01-0.116,0.01-0.175A14.878,14.878,0,0,0,1456.14,49Z" transform="translate(-1455.97 -49)"/>
</svg>
