<svg xmlns="http://www.w3.org/2000/svg" width="13.97" height="13.969" viewBox="0 0 13.97 13.969">
  <defs>
    <style>
      .cls-1 {
        fill: #fff;
        fill-rule: evenodd;
        opacity: 0.2;
      }
    </style>
  </defs>
  <path id="search.svg" class="cls-1" d="M1509.68,131a5.677,5.677,0,1,1-5.68,5.677A5.675,5.675,0,0,1,1509.68,131Zm3.61,9.584,0.29-.3a0.429,0.429,0,0,1,.6,0l1.48,1.484a0.41,0.41,0,0,1,0,.594l-0.3.3a0.415,0.415,0,0,1-.59,0l-1.48-1.484A0.41,0.41,0,0,1,1513.29,140.583Zm0.88,1.586,1-1a0.464,0.464,0,0,1,.66,0l2,2a0.477,0.477,0,0,1,0,.665l-1,1a0.465,0.465,0,0,1-.66,0l-2-2A0.477,0.477,0,0,1,1514.17,142.169Zm-4.49-8.983a3.49,3.49,0,1,1-3.49,3.49A3.494,3.494,0,0,1,1509.68,133.186Z" transform="translate(-1504 -131)"/>
</svg>
