<svg xmlns="http://www.w3.org/2000/svg" width="32" height="32" viewBox="0 0 32 32">
  <defs>
    <style>
      .cls-1 {
        fill: #f4b60d;
        fill-rule: evenodd;
      }
    </style>
  </defs>
  <path id="settings.svg" class="cls-1" d="M533.391,760.678l-3.065-.614a12.092,12.092,0,0,0-.536-1.289l1.735-2.6a2,2,0,0,0-.25-2.523l-1.923-1.924a2,2,0,0,0-2.524-.25l-2.6,1.736a11.994,11.994,0,0,0-1.29-.537l-0.614-3.065A2,2,0,0,0,520.36,748h-2.72a2,2,0,0,0-1.961,1.608l-0.615,3.065a12.1,12.1,0,0,0-1.289.537l-2.6-1.736a2,2,0,0,0-2.524.25l-1.924,1.924a2,2,0,0,0-.249,2.523l1.735,2.6a11.9,11.9,0,0,0-.536,1.29l-3.066.613A2,2,0,0,0,503,762.639v2.721a2,2,0,0,0,1.608,1.961l3.066,0.614a12.092,12.092,0,0,0,.536,1.289l-1.735,2.6a2,2,0,0,0,.249,2.523l1.924,1.924a2,2,0,0,0,2.524.25l2.6-1.735a11.989,11.989,0,0,0,1.29.536l0.614,3.065A2,2,0,0,0,517.64,780h2.72a2,2,0,0,0,1.961-1.609l0.614-3.065a12.023,12.023,0,0,0,1.29-.536l2.6,1.735a2,2,0,0,0,2.524-.25l1.923-1.924a2,2,0,0,0,.25-2.523l-1.735-2.6a11.989,11.989,0,0,0,.536-1.29l3.065-.613A2,2,0,0,0,535,765.36v-2.721A2,2,0,0,0,533.391,760.678Zm-3.457,5.295a2,2,0,0,0-1.5,1.3,10.049,10.049,0,0,1-.447,1.075,2,2,0,0,0,.136,1.982l1.735,2.6-1.924,1.924-2.6-1.735a2,2,0,0,0-1.981-.137,10,10,0,0,1-1.075.448,2,2,0,0,0-1.3,1.5L520.36,778h-2.72l-0.614-3.067a2,2,0,0,0-1.3-1.5,9.981,9.981,0,0,1-1.076-.447,1.993,1.993,0,0,0-1.981.136l-2.6,1.735-1.923-1.924,1.735-2.6a2,2,0,0,0,.137-1.981,10.1,10.1,0,0,1-.449-1.075,2,2,0,0,0-1.5-1.3L505,765.36v-2.721l3.066-.613a2,2,0,0,0,1.5-1.3,10.055,10.055,0,0,1,.448-1.075,2,2,0,0,0-.136-1.981l-1.735-2.6,1.923-1.924,2.6,1.736a2,2,0,0,0,1.98.136,10.02,10.02,0,0,1,1.076-.448,2,2,0,0,0,1.3-1.5L517.64,750h2.72l0.614,3.066a2,2,0,0,0,1.3,1.5,9.964,9.964,0,0,1,1.075.447,2,2,0,0,0,1.982-.135l2.6-1.736,1.924,1.924-1.735,2.6a2,2,0,0,0-.137,1.98,10.09,10.09,0,0,1,.448,1.075,2,2,0,0,0,1.5,1.3L533,762.639v2.721ZM519,757a7,7,0,1,0,7,7A7,7,0,0,0,519,757Zm0,13.125A6.125,6.125,0,1,1,525.125,764,6.127,6.127,0,0,1,519,770.125ZM519,760a4,4,0,1,0,4,4A4,4,0,0,0,519,760Zm0,7a3,3,0,1,1,3-3A3,3,0,0,1,519,767Z" transform="translate(-503 -748)"/>
</svg>
