<svg xmlns="http://www.w3.org/2000/svg" width="16" height="16" viewBox="0 0 16 16">
  <defs>
    <style>
      .cls-1 {
        fill-rule: evenodd;
        opacity: 0.2;
      }
    </style>
  </defs>
  <path id="skype.svg" class="cls-1" d="M1535.83,57.083a7.493,7.493,0,0,0,.09-1.065,7.085,7.085,0,0,0-8.21-7.042,4.063,4.063,0,0,0-5.89,5.531,6.844,6.844,0,0,0-.16,1.511,7.12,7.12,0,0,0,8.6,6.978A4.064,4.064,0,0,0,1535.83,57.083Zm-3.71,2.041a2.775,2.775,0,0,1-1.24.937,4.928,4.928,0,0,1-1.92.34,4.6,4.6,0,0,1-2.2-.464,2.775,2.775,0,0,1-1-.891,1.889,1.889,0,0,1-.39-1.082,0.7,0.7,0,0,1,.23-0.522,0.834,0.834,0,0,1,.59-0.218,0.726,0.726,0,0,1,.49.17,1.307,1.307,0,0,1,.34.5,3.687,3.687,0,0,0,.37.661,1.487,1.487,0,0,0,.57.438,2.221,2.221,0,0,0,.95.173,2.294,2.294,0,0,0,1.32-.347,1.024,1.024,0,0,0,.51-0.869,0.889,0.889,0,0,0-.28-0.669,1.787,1.787,0,0,0-.71-0.394c-0.28-.09-0.67-0.186-1.15-0.288a9.249,9.249,0,0,1-1.63-.488,2.549,2.549,0,0,1-1.04-.764,1.849,1.849,0,0,1-.38-1.2,1.946,1.946,0,0,1,.4-1.216,2.519,2.519,0,0,1,1.18-.817,5.145,5.145,0,0,1,1.8-.285,4.827,4.827,0,0,1,1.44.188,3.061,3.061,0,0,1,1,.5,2.1,2.1,0,0,1,.59.659,1.445,1.445,0,0,1,.18.671,0.737,0.737,0,0,1-.23.541,0.751,0.751,0,0,1-.57.24,0.712,0.712,0,0,1-.48-0.145,1.737,1.737,0,0,1-.35-0.472,2.232,2.232,0,0,0-.59-0.732,1.852,1.852,0,0,0-1.11-.263,2.046,2.046,0,0,0-1.14.285,0.811,0.811,0,0,0-.43.686,0.7,0.7,0,0,0,.14.43,1.277,1.277,0,0,0,.41.31,3.117,3.117,0,0,0,.52.205c0.18,0.047.47,0.12,0.88,0.214q0.75,0.164,1.38.362a4.44,4.44,0,0,1,1.05.48,2.008,2.008,0,0,1,.67.716,2.054,2.054,0,0,1,.25,1.061A2.3,2.3,0,0,1,1532.12,59.124Z" transform="translate(-1521 -48)"/>
</svg>
