<svg xmlns="http://www.w3.org/2000/svg" width="32" height="26" viewBox="0 0 32 26">
  <defs>
    <style>
      .cls-1 {
        fill: #f4b60d;
        fill-rule: evenodd;
      }
    </style>
  </defs>
  <path id="truck.svg" class="cls-1" d="M1327.83,759.445A0.993,0.993,0,0,0,1327,759h-1a1,1,0,0,0-1,1v6a1,1,0,0,0,1,1h4a1,1,0,0,0,1-1v-1.5a1,1,0,0,0-.17-0.555ZM1330,766h-4v-6h1l3,4.5V766Zm4.5-2.665-4-6A3.011,3.011,0,0,0,1328,756h-4v-2a3.006,3.006,0,0,0-3-3h-15a3.006,3.006,0,0,0-3,3v11a3.005,3.005,0,0,0,3,3h0v3a3.006,3.006,0,0,0,3,3h1.14a3.984,3.984,0,0,0,7.72,0h5.28a3.984,3.984,0,0,0,7.72,0H1332a3.006,3.006,0,0,0,3-3v-6A2.989,2.989,0,0,0,1334.5,763.335ZM1306,766a1,1,0,0,1-1-1V754a1,1,0,0,1,1-1h15a1,1,0,0,1,1,1v11a1,1,0,0,1-1,1h-15Zm8,9a2,2,0,1,1,2-2A2,2,0,0,1,1314,775Zm13,0a2,2,0,1,1,2-2A2,2,0,0,1,1327,775Zm6-4a1,1,0,0,1-1,1h-1.14a3.983,3.983,0,0,0-7.72,0h-5.28a3.983,3.983,0,0,0-7.72,0H1309a1,1,0,0,1-1-1v-3h13a3.005,3.005,0,0,0,3-3v-7h4a1,1,0,0,1,.83.445l4,6a1,1,0,0,1,.17.555v6Z" transform="translate(-1303 -751)"/>
</svg>
