<svg xmlns="http://www.w3.org/2000/svg" width="16" height="13" viewBox="0 0 16 13">
  <defs>
    <style>
      .cls-1 {
        fill: #248cec;
        fill-rule: evenodd;
      }
    </style>
  </defs>
  <path id="twitter.svg" class="cls-1" d="M1438.56,51.562a5.811,5.811,0,0,1-1.83.519,3.545,3.545,0,0,0,1.38-1.793,5.424,5.424,0,0,1-2.06.73v0a3.3,3.3,0,0,0-5.69,2.28,3.549,3.549,0,0,0,.08.735h0a9.52,9.52,0,0,1-6.99-3.424,3.308,3.308,0,0,0,1,4.36,2.132,2.132,0,0,1-1.44-.372,3.182,3.182,0,0,0,2.55,3.225,2.608,2.608,0,0,1-1.38.1,3.132,3.132,0,0,0,2.95,2.241,5.4,5.4,0,0,1-4.57,1.369,9.92,9.92,0,0,0,5.17,1.46,9.162,9.162,0,0,0,9.23-9.64V53.25A5.54,5.54,0,0,0,1438.56,51.562Z" transform="translate(-1422.56 -50)"/>
</svg>
