<?xml version="1.0" encoding="utf-8"?>
<!-- Generated by IcoMoon.io -->
<!DOCTYPE svg PUBLIC "-//W3C//DTD SVG 1.1//EN" "http://www.w3.org/Graphics/SVG/1.1/DTD/svg11.dtd">
<svg version="1.1" xmlns="http://www.w3.org/2000/svg" xmlns:xlink="http://www.w3.org/1999/xlink" width="32" height="32" viewBox="0 0 32 32">
<path fill="#000" d="M19.898 5.338l6.509 6.541-16.477 16.56-6.506-6.541zM31.347 3.76l-2.902-2.918c-0.521-0.52-1.241-0.842-2.035-0.842s-1.514 0.322-2.035 0.842l-2.781 2.797 6.509 6.541 3.245-3.261c0.406-0.406 0.658-0.966 0.658-1.586 0-0.613-0.246-1.169-0.645-1.573zM0.019 31.091c-0.012 0.050-0.019 0.107-0.019 0.165 0 0.408 0.331 0.739 0.739 0.739 0.062 0 0.123-0.008 0.181-0.022l7.246-1.765-6.506-6.541z"></path>
</svg>
