<svg xmlns="http://www.w3.org/2000/svg" xmlns:xlink="http://www.w3.org/1999/xlink" width="28" height="28" viewBox="0 0 28 28">
  <defs>
    <style>
      .cls-1 {
        fill-rule: evenodd;
        filter: url(#filter);
      }
    </style>
    <filter id="filter" x="812" y="8852" width="28" height="28" filterUnits="userSpaceOnUse">
      <feFlood result="flood" flood-color="#c83642"/>
      <feComposite result="composite" operator="in" in2="SourceGraphic"/>
      <feBlend result="blend" in2="SourceGraphic"/>
    </filter>
  </defs>
  <path id="gener.svg" class="cls-1" d="M826,8877.2a11.2,11.2,0,1,1,0-22.4,9.011,9.011,0,0,0,0-2.8,14,14,0,0,0,0,28m-6-9.72,1.714,1.72,4.286-4.29,4.286,4.29,1.714-1.72-4.286-4.28,4.286-4.29-1.714-1.71L826,8864.28l-4.286-4.28L820,8861.71l4.286,4.29Zm6,6.92a11.2,11.2,0,0,0,0-22.4c0.084,0.26-.124-1.11,0-2.8a14,14,0,0,1,0,28" transform="translate(-812 -8852)"/>
</svg>
