<?xml version="1.0" encoding="utf-8"?>
<!-- Generated by IcoMoon.io -->
<!DOCTYPE svg PUBLIC "-//W3C//DTD SVG 1.1//EN" "http://www.w3.org/Graphics/SVG/1.1/DTD/svg11.dtd">
<svg version="1.1" xmlns="http://www.w3.org/2000/svg" xmlns:xlink="http://www.w3.org/1999/xlink" width="300" height="320" viewBox="0 0 34 32">
<path fill="#f00" d="M33.771 13.239c0.264-0.214 0.431-0.539 0.431-0.903 0-0.141-0.025-0.276-0.071-0.4-0.158-0.456-0.58-0.789-1.082-0.815l-9.944-0.723c-0.468-0.027-0.863-0.316-1.042-0.722l-3.971-8.946c-0.196-0.435-0.625-0.732-1.124-0.732-0.010 0-0.020 0-0.030 0-0.503 0.005-0.936 0.31-1.126 0.745l-3.779 9.017c-0.182 0.417-0.575 0.711-1.041 0.746l-9.924 0.905c-0.633 0.046-1.129 0.57-1.129 1.211 0 0.368 0.164 0.698 0.423 0.921l7.618 6.295c0.269 0.215 0.439 0.543 0.439 0.911 0 0.099-0.012 0.195-0.036 0.287l-2.174 9.49c-0.018 0.078-0.029 0.169-0.029 0.261 0 0.41 0.204 0.772 0.515 0.991 0.204 0.143 0.452 0.226 0.719 0.226 0.24 0 0.464-0.067 0.655-0.184l8.485-5.117c0.186-0.11 0.411-0.175 0.651-0.175s0.464 0.065 0.657 0.179l8.57 4.963c0.181 0.106 0.398 0.169 0.63 0.169 0.276 0 0.532-0.089 0.739-0.24 0.304-0.213 0.503-0.567 0.503-0.966 0-0.105-0.014-0.206-0.039-0.302l-2.366-9.447c-0.021-0.085-0.034-0.183-0.034-0.283 0-0.364 0.161-0.691 0.416-0.912z"></path>
</svg>
